<?xml version="1.0" encoding="UTF-8" standalone="no"?>
<!DOCTYPE svg PUBLIC "-//W3C//DTD SVG 1.1//EN"
 "http://www.w3.org/Graphics/SVG/1.1/DTD/svg11.dtd">
<!-- Generated by graphviz version 12.2.1 (20241206.2353)
 -->
<!-- Title: fpmdeps Pages: 1 -->
<svg width="472pt" height="260pt"
 viewBox="0.00 0.00 472.10 260.00" xmlns="http://www.w3.org/2000/svg" xmlns:xlink="http://www.w3.org/1999/xlink">
<g id="graph0" class="graph" transform="scale(1 1) rotate(0) translate(4 256)">
<title>fpmdeps</title>
<polygon fill="white" stroke="none" points="-4,4 -4,-256 468.1,-256 468.1,4 -4,4"/>
<!-- N1 -->
<g id="node1" class="node">
<title>N1</title>
<ellipse fill="none" stroke="black" cx="177.96" cy="-234" rx="44.52" ry="18"/>
<text text-anchor="middle" x="177.96" y="-228.2" font-family="Helvetica,Arial,sans-serif" font-size="14.00">fpmdeps</text>
</g>
<!-- N2 -->
<g id="node2" class="node">
<title>N2</title>
<ellipse fill="none" stroke="black" cx="177.96" cy="-162" rx="27" ry="18"/>
<text text-anchor="middle" x="177.96" y="-156.2" font-family="Helvetica,Arial,sans-serif" font-size="14.00">fpm</text>
</g>
<!-- N1&#45;&gt;N2 -->
<g id="edge1" class="edge">
<title>N1&#45;&gt;N2</title>
<path fill="none" stroke="black" d="M177.96,-215.7C177.96,-208.41 177.96,-199.73 177.96,-191.54"/>
<polygon fill="black" stroke="black" points="181.46,-191.62 177.96,-181.62 174.46,-191.62 181.46,-191.62"/>
</g>
<!-- N3 -->
<g id="node3" class="node">
<title>N3</title>
<ellipse fill="none" stroke="black" cx="139.96" cy="-18" rx="32.82" ry="18"/>
<text text-anchor="middle" x="139.96" y="-12.2" font-family="Helvetica,Arial,sans-serif" font-size="14.00">toml&#45;f</text>
</g>
<!-- N2&#45;&gt;N3 -->
<g id="edge2" class="edge">
<title>N2&#45;&gt;N3</title>
<path fill="none" stroke="black" d="M150.47,-161.67C111.21,-160.94 40.15,-153.04 6.96,-108 -2.53,-95.12 -2.02,-85.24 6.96,-72 26.81,-42.72 65.69,-29.62 96.31,-23.75"/>
<polygon fill="black" stroke="black" points="96.82,-27.21 106.1,-22.09 95.65,-20.31 96.82,-27.21"/>
</g>
<!-- N4 -->
<g id="node4" class="node">
<title>N4</title>
<ellipse fill="none" stroke="black" cx="57.96" cy="-90" rx="41.6" ry="18"/>
<text text-anchor="middle" x="57.96" y="-84.2" font-family="Helvetica,Arial,sans-serif" font-size="14.00">M_CLI2</text>
</g>
<!-- N2&#45;&gt;N4 -->
<g id="edge3" class="edge">
<title>N2&#45;&gt;N4</title>
<path fill="none" stroke="black" d="M158.14,-149.44C140.1,-138.91 113.08,-123.15 91.65,-110.65"/>
<polygon fill="black" stroke="black" points="93.65,-107.77 83.25,-105.75 90.12,-113.81 93.65,-107.77"/>
</g>
<!-- N5 -->
<g id="node5" class="node">
<title>N5</title>
<ellipse fill="none" stroke="black" cx="177.96" cy="-90" rx="60.61" ry="18"/>
<text text-anchor="middle" x="177.96" y="-84.2" font-family="Helvetica,Arial,sans-serif" font-size="14.00">fortran&#45;regex</text>
</g>
<!-- N2&#45;&gt;N5 -->
<g id="edge4" class="edge">
<title>N2&#45;&gt;N5</title>
<path fill="none" stroke="black" d="M177.96,-143.7C177.96,-136.41 177.96,-127.73 177.96,-119.54"/>
<polygon fill="black" stroke="black" points="181.46,-119.62 177.96,-109.62 174.46,-119.62 181.46,-119.62"/>
</g>
<!-- N6 -->
<g id="node6" class="node">
<title>N6</title>
<ellipse fill="none" stroke="black" cx="291.96" cy="-90" rx="35.75" ry="18"/>
<text text-anchor="middle" x="291.96" y="-84.2" font-family="Helvetica,Arial,sans-serif" font-size="14.00">jonquil</text>
</g>
<!-- N2&#45;&gt;N6 -->
<g id="edge5" class="edge">
<title>N2&#45;&gt;N6</title>
<path fill="none" stroke="black" d="M197.3,-149.13C214.47,-138.58 239.9,-122.97 260.08,-110.58"/>
<polygon fill="black" stroke="black" points="261.81,-113.62 268.5,-105.41 258.15,-107.66 261.81,-113.62"/>
</g>
<!-- N7 -->
<g id="node7" class="node">
<title>N7</title>
<ellipse fill="none" stroke="black" cx="404.96" cy="-90" rx="59.14" ry="18"/>
<text text-anchor="middle" x="404.96" y="-84.2" font-family="Helvetica,Arial,sans-serif" font-size="14.00">fortran&#45;shlex</text>
</g>
<!-- N2&#45;&gt;N7 -->
<g id="edge6" class="edge">
<title>N2&#45;&gt;N7</title>
<path fill="none" stroke="black" d="M202.25,-153.51C238.15,-142.44 306.2,-121.45 353.5,-106.87"/>
<polygon fill="black" stroke="black" points="354.48,-110.23 363,-103.94 352.42,-103.54 354.48,-110.23"/>
</g>
<!-- N6&#45;&gt;N3 -->
<g id="edge7" class="edge">
<title>N6&#45;&gt;N3</title>
<path fill="none" stroke="black" d="M266.17,-77.13C241.01,-65.54 202.56,-47.83 174.71,-35.01"/>
<polygon fill="black" stroke="black" points="176.53,-31.99 165.98,-30.99 173.6,-38.35 176.53,-31.99"/>
</g>
</g>
</svg>
